<svg width="100%" height="40" viewBox="0 0 41 40" fill="none" xmlns="http://www.w3.org/2000/svg">
  <path
    d="M20.4618 39.8709C16.5729 39.8707 12.7714 38.7174 9.53801 36.5567C6.3046 34.396 3.7845 31.3251 2.29638 27.7322C0.808257 24.1393 0.418948 20.1858 1.17768 16.3716C1.93641 12.5575 3.80911 9.05395 6.55897 6.30409C9.30883 3.55423 12.8124 1.68153 16.6265 0.922799C20.4407 0.164065 24.3942 0.553374 27.9871 2.0415C31.58 3.52962 34.6509 6.04972 36.8116 9.28313C38.9723 12.5165 40.1256 16.318 40.1258 20.2069C40.1259 22.7893 39.6174 25.3464 38.6292 27.7322C37.6411 30.118 36.1927 32.2858 34.3667 34.1118C32.5407 35.9378 30.3729 37.3862 27.9871 38.3744C25.6012 39.3625 23.0442 39.8711 20.4618 39.8709V39.8709ZM18.5018 28.0709L32.4018 14.1709L29.6218 11.3909L18.4988 22.5119L12.9388 16.9489L10.1588 19.7289L18.5018 28.0709Z"
    fill="currentColor"/>
</svg>
